<?xml version="1.0" encoding="UTF-8" standalone="no"?>
<!-- Created with Inkscape (http://www.inkscape.org/) -->

<svg
   xmlns:dc="http://purl.org/dc/elements/1.1/"
   xmlns:cc="http://creativecommons.org/ns#"
   xmlns:rdf="http://www.w3.org/1999/02/22-rdf-syntax-ns#"
   xmlns:svg="http://www.w3.org/2000/svg"
   xmlns="http://www.w3.org/2000/svg"
   xmlns:sodipodi="http://sodipodi.sourceforge.net/DTD/sodipodi-0.dtd"
   xmlns:inkscape="http://www.inkscape.org/namespaces/inkscape"
   width="171.85432mm"
   height="71.093697mm"
   viewBox="0 0 171.85432 71.093696"
   version="1.1"
   id="svg8"
   sodipodi:docname="ihris.svg"
   inkscape:version="0.92.4 (5da689c313, 2019-01-14)">
  <defs
     id="defs2" />
  <sodipodi:namedview
     id="base"
     pagecolor="#ffffff"
     bordercolor="#666666"
     borderopacity="1.0"
     inkscape:pageopacity="0.0"
     inkscape:pageshadow="2"
     inkscape:zoom="0.7"
     inkscape:cx="778.29732"
     inkscape:cy="-11.539395"
     inkscape:document-units="mm"
     inkscape:current-layer="layer1"
     showgrid="false"
     inkscape:snap-page="false"
     inkscape:window-width="1920"
     inkscape:window-height="1028"
     inkscape:window-x="-8"
     inkscape:window-y="-8"
     inkscape:window-maximized="1"
     showguides="true"
     inkscape:guide-bbox="true"
     inkscape:snap-to-guides="false">
    <sodipodi:guide
       position="-152.54852,2.700825"
       orientation="0,1"
       id="guide5827"
       inkscape:locked="false" />
    <sodipodi:guide
       position="-21.051906,67.914592"
       orientation="0,1"
       id="guide5829"
       inkscape:locked="false" />
    <sodipodi:guide
       position="4.6059682,67.914592"
       orientation="1,0"
       id="guide5831"
       inkscape:locked="false" />
    <sodipodi:guide
       position="150.26784,69.518213"
       orientation="1,0"
       id="guide5833"
       inkscape:locked="false" />
    <sodipodi:guide
       position="69.757347,8.8198942"
       orientation="0,1"
       id="guide912"
       inkscape:locked="false" />
    <sodipodi:guide
       position="92.207987,61.47199"
       orientation="0,1"
       id="guide914"
       inkscape:locked="false" />
  </sodipodi:namedview>
  <metadata
     id="metadata5">
    <rdf:RDF>
      <cc:Work
         rdf:about="">
        <dc:format>image/svg+xml</dc:format>
        <dc:type
           rdf:resource="http://purl.org/dc/dcmitype/StillImage" />
        <dc:title />
      </cc:Work>
    </rdf:RDF>
  </metadata>
  <g
     inkscape:groupmode="layer"
     id="layer2"
     inkscape:label="Layer 2"
     transform="translate(-33.880844,-23.344133)"
     style="display:inline" />
  <g
     inkscape:label="Layer 1"
     inkscape:groupmode="layer"
     id="layer1"
     style="display:inline"
     transform="translate(-33.880844,-23.344133)">
    <text
       xml:space="preserve"
       style="font-style:normal;font-variant:normal;font-weight:normal;font-stretch:normal;font-size:70.55554962px;line-height:1.25;font-family:'Agency FB';-inkscape-font-specification:'Agency FB';letter-spacing:0px;word-spacing:0px;fill:#000000;fill-opacity:1;stroke:none;stroke-width:0.26458332"
       x="7.1815472"
       y="158.28273"
       id="text1383"><tspan
         sodipodi:role="line"
         id="tspan1381"
         x="7.1815472"
         y="224.19598"
         style="font-style:normal;font-variant:normal;font-weight:normal;font-stretch:normal;font-family:'Agency FB';-inkscape-font-specification:'Agency FB';stroke-width:0.26458332" /></text>
    <text
       xml:space="preserve"
       style="font-style:normal;font-variant:normal;font-weight:normal;font-stretch:normal;font-size:70.55554962px;line-height:1.25;font-family:'Agency FB';-inkscape-font-specification:'Agency FB';letter-spacing:0px;word-spacing:0px;fill:#000000;fill-opacity:1;stroke:none;stroke-width:0.26458332"
       x="84.288696"
       y="92.136902"
       id="text1387"><tspan
         sodipodi:role="line"
         id="tspan1385"
         x="84.288696"
         y="158.05016"
         style="font-style:normal;font-variant:normal;font-weight:normal;font-stretch:normal;font-family:'Agency FB';-inkscape-font-specification:'Agency FB';stroke-width:0.26458332" /></text>
    <text
       xml:space="preserve"
       style="font-style:normal;font-weight:normal;font-size:47.26322937px;line-height:1.25;font-family:sans-serif;letter-spacing:0px;word-spacing:0px;fill:#000080;fill-opacity:1;stroke:none;stroke-width:0.17723711;"
       x="84.125381"
       y="108.46147"
       id="text1391"
       transform="scale(1.3178851,0.75879149)"><tspan
         sodipodi:role="line"
         id="tspan1389"
         x="84.125381"
         y="108.46147"
         style="font-style:normal;font-variant:normal;font-weight:normal;font-stretch:normal;font-family:'Agency FB';-inkscape-font-specification:'Agency FB';fill:#000080;fill-opacity:1;stroke-width:0.17723711;">HR<tspan
   style="fill:#ff0000;fill-opacity:1;stroke-width:0.17723711"
   id="tspan5816">I</tspan>S</tspan></text>
    <text
       xml:space="preserve"
       style="font-style:normal;font-weight:normal;font-size:41.15744019px;line-height:1.25;font-family:sans-serif;letter-spacing:0px;word-spacing:0px;fill:#000080;fill-opacity:1;stroke:none;stroke-width:0.15434042;"
       x="114.84786"
       y="46.194649"
       id="text1395"
       transform="scale(0.98980844,1.0102965)"><tspan
         sodipodi:role="line"
         id="tspan1393"
         x="114.84786"
         y="46.194649"
         style="font-size:13.17038059px;fill:#000080;fill-opacity:1;stroke-width:0.15434042;">INTEGRATED</tspan></text>
    <path
       style="fill:#000080;fill-opacity:1;stroke:none;stroke-width:0;stroke-miterlimit:4;stroke-dasharray:none;stroke-opacity:1"
       d="m 88.913563,61.043512 c -0.63587,-1.10952 -1.12372,-2.10175 -1.08411,-2.20498 0.0454,-0.11819 0.27146,-0.18767 0.61075,-0.18767 h 0.53874 v -0.6616 c 0,-0.67335 -0.11999,-1.39501 -0.48946,-2.94373 -0.68109,-2.85505 -2.23959,-5.63773 -4.44563,-7.93766 -2.94017,-3.065299 -6.5435,-4.86296 -10.87689,-5.42635 -4.11781,-0.535361 -8.936323,0.743585 -12.395432,3.29004 -1.305968,0.9614 -3.090971,2.75853 -4.001405,4.02858 -0.956929,1.33492 -2.109216,3.62017 -2.550366,5.05795 -0.166161,0.54155 -0.376119,0.98463 -0.466572,0.98463 -0.09045,0 -0.380108,-0.38562 -0.643681,-0.85693 -0.399589,-0.71453 -0.479224,-0.98855 -0.479224,-1.64901 0,-0.68186 0.0891,-0.96705 0.640371,-2.04962 1.306029,-2.56475 2.932578,-4.63491 4.972288,-6.328418 3.406582,-2.828364 6.765997,-4.246255 11.091681,-4.681408 6.6922,-0.673214 13.1466,2.036125 17.50224,7.346856 2.38785,2.91144 3.86663,6.47191 4.32921,10.42351 l 0.15643,1.33635 0.57275,0.0414 c 0.32355,0.0234 0.60274,0.11961 0.64168,0.22109 0.0748,0.19498 -2.17149,4.21423 -2.35528,4.21423 -0.0616,0 -0.63223,-0.90779 -1.26809,-2.0173 z"
       id="path5743"
       inkscape:connector-curvature="0" />
    <path
       style="fill:#000080;fill-opacity:1;stroke:none;stroke-width:0;stroke-miterlimit:4;stroke-dasharray:none;stroke-opacity:1"
       d="m 69.134173,79.767542 c -4.236333,-0.36512 -8.540167,-2.28034 -11.728602,-5.21926 -3.58058,-3.30038 -6.004285,-8.15131 -6.340494,-12.69019 -0.04083,-0.55124 -0.133678,-1.07742 -0.206322,-1.1693 -0.07265,-0.0919 -0.361714,-0.16704 -0.642374,-0.16704 -0.280659,0 -0.542508,-0.0521 -0.581886,-0.11585 -0.118551,-0.19182 2.236646,-4.172 2.444196,-4.13058 0.240474,0.048 2.467692,3.93152 2.357236,4.11025 -0.04629,0.0749 -0.317611,0.13618 -0.60293,0.13618 -0.285321,0 -0.558969,0.065 -0.608108,0.14456 -0.195741,0.31671 0.369531,3.27132 0.968553,5.06249 1.188907,3.55504 4.012379,7.12561 7.231573,9.14508 1.719805,1.07887 4.14261,2.03157 6.372815,2.50594 1.220233,0.25954 5.359333,0.22235 6.639043,-0.0597 4.49286,-0.9901 8.19633,-3.33879 10.87923,-6.89947 0.98263,-1.30413 2.14613,-3.56342 2.67432,-5.19302 0.19738,-0.60896 0.42141,-1.08636 0.49785,-1.06088 0.0764,0.0255 0.33766,0.40345 0.5805,0.83994 0.37871,0.6807 0.44174,0.92396 0.44311,1.70994 0.001,0.74924 -0.0733,1.0732 -0.40895,1.77657 -0.39854,0.83506 -1.66786,2.98536 -1.84185,3.1202 -0.0474,0.0367 -0.29407,0.33743 -0.54813,0.66818 -2.18965,2.85064 -5.78128,5.36283 -9.34472,6.53621 -2.55029,0.83976 -5.52669,1.18307 -8.23406,0.94972 z"
       id="path5745"
       inkscape:connector-curvature="0" />
    <path
       style="fill:#000080;fill-opacity:1;stroke:none;stroke-width:0;stroke-miterlimit:4;stroke-dasharray:none;stroke-opacity:1"
       d="m 66.123556,68.995908 c -0.712907,-0.10912 -1.426893,-0.25431 -1.586636,-0.322764 -1.17667,-0.504145 -1.673662,-5.452027 -0.737218,-7.339529 0.396587,-0.799362 1.183323,-1.422144 2.254346,-1.784542 0.830349,-0.280958 1.047714,-0.246113 1.251246,0.200586 0.09932,0.217997 0.428086,0.673692 0.730583,1.012654 0.302495,0.338962 0.959201,1.231148 1.459357,1.982643 0.537086,0.807 0.938222,1.271303 0.979857,1.134176 0.0388,-0.127706 0.162467,-0.759811 0.274909,-1.404684 l 0.204417,-1.17249 -0.51165,-0.823065 c -0.281407,-0.4527 -0.511649,-0.891143 -0.511649,-0.974328 0,-0.08317 0.546834,-0.151264 1.21518,-0.151264 0.752779,0 1.215192,0.06571 1.215192,0.172833 0,0.09505 -0.176604,0.404931 -0.392455,0.688605 -0.215838,0.283675 -0.438503,0.700427 -0.494796,0.926134 -0.09724,0.389812 0.158781,2.487988 0.339204,2.779907 0.0468,0.07566 0.453901,-0.428949 0.904795,-1.121313 0.450882,-0.692364 1.091245,-1.586938 1.423004,-1.987953 0.331773,-0.401002 0.689357,-0.893156 0.794634,-1.093657 0.105239,-0.200513 0.295483,-0.364556 0.42268,-0.364556 0.568404,0 2.085336,0.725584 2.57846,1.233342 0.781466,0.804648 0.946758,1.595862 0.880874,4.216732 -0.04886,1.942959 -0.106452,2.347623 -0.427179,2.998582 -0.440783,0.894708 -0.714358,1.021505 -2.718703,1.259992 -1.919134,0.228363 -7.894381,0.187031 -9.548452,-0.06608 z"
       id="path5747"
       inkscape:connector-curvature="0" />
    <path
       style="fill:#000080;fill-opacity:1;stroke:none;stroke-width:0;stroke-miterlimit:4;stroke-dasharray:none;stroke-opacity:1"
       d="m 57.050206,66.330371 c -0.712907,-0.05868 -1.460364,-0.196876 -1.661015,-0.307196 -0.613671,-0.337422 -0.850357,-1.189852 -0.850357,-3.062563 0,-1.997228 0.302229,-2.758167 1.279713,-3.222022 1.113843,-0.528551 1.596929,-0.553928 2.444122,-0.12841 1.078052,0.541476 2.646051,0.545441 3.713314,0.0097 0.488845,-0.245531 0.937459,-0.355827 1.256759,-0.308966 l 0.49655,0.07287 -0.393098,0.393098 c -0.846825,0.846828 -1.093456,1.73922 -1.181594,4.275426 l -0.08165,2.349345 -1.863275,0.01782 c -1.024804,0.0097 -2.446566,-0.03019 -3.159471,-0.08875 z"
       id="path5749"
       inkscape:connector-curvature="0" />
    <path
       style="fill:#000080;fill-opacity:1;stroke:none;stroke-width:0;stroke-miterlimit:4;stroke-dasharray:none;stroke-opacity:1"
       d="m 58.901282,58.616258 c -0.851573,-0.262372 -1.789756,-1.101368 -2.201248,-1.968517 -0.340821,-0.718237 -0.378688,-2.531623 -0.0653,-3.127307 0.483121,-0.918326 1.071492,-1.514434 1.854729,-1.879136 1.971601,-0.918023 4.08081,-0.147675 5.126054,1.872189 0.285687,0.552084 0.25698,2.395563 -0.04805,3.085405 -0.394236,0.891567 -1.367215,1.755964 -2.28251,2.027781 -0.978168,0.290477 -1.413231,0.288585 -2.383673,-0.01091 z"
       id="path5751"
       inkscape:connector-curvature="0" />
    <path
       style="fill:#000080;fill-opacity:1;stroke:none;stroke-width:0;stroke-miterlimit:4;stroke-dasharray:none;stroke-opacity:1"
       d="m 69.637247,57.814132 c -2.975056,-0.835346 -4.554736,-4.263981 -3.286,-7.132165 0.458624,-1.036794 1.580775,-2.172474 2.607724,-2.639178 0.714794,-0.324837 1.147635,-0.404579 2.187327,-0.402979 1.531954,0.0024 2.374624,0.319029 3.497671,1.314406 2.707863,2.400049 1.936545,7.161422 -1.399144,8.636961 -0.967915,0.428149 -2.532411,0.524841 -3.607578,0.222955 z"
       id="path5755"
       inkscape:connector-curvature="0" />
    <path
       style="fill:#000080;fill-opacity:1;stroke:none;stroke-width:0;stroke-miterlimit:4;stroke-dasharray:none;stroke-opacity:1"
       d="m 80.723748,58.542724 c -1.018498,-0.397765 -1.508396,-0.858165 -1.982169,-1.862829 -1.496296,-3.172955 1.749272,-6.558621 4.877597,-5.088137 1.585968,0.745493 2.581806,2.628327 2.197462,4.15474 -0.268422,1.065977 -0.560402,1.556082 -1.308574,2.196493 -1.080805,0.925115 -2.411252,1.135971 -3.784316,0.599733 z"
       id="path5757"
       inkscape:connector-curvature="0" />
    <path
       style="fill:#000080;fill-opacity:1;stroke:none;stroke-width:0;stroke-miterlimit:4;stroke-dasharray:none;stroke-opacity:1"
       d="m 80.219652,66.372151 c -0.09239,-0.07578 -0.169499,-1.107964 -0.179405,-2.401164 -0.01904,-2.490982 -0.156295,-3.024177 -1.035993,-4.026101 l -0.486989,-0.554642 0.521289,-0.0765 c 0.352638,-0.05177 0.753737,0.04704 1.239877,0.305571 1.017746,0.541148 2.739738,0.538263 3.691819,-0.0061 0.765086,-0.437521 1.559476,-0.386284 2.493855,0.160854 1.068524,0.625704 1.209349,1.00002 1.202632,3.196864 -0.0073,2.259528 -0.211668,2.871943 -1.059091,3.167342 -0.620551,0.216336 -6.161922,0.419274 -6.387994,0.233952 z"
       id="path5759"
       inkscape:connector-curvature="0" />
    <path
       style="fill:#000080;fill-opacity:1;stroke:none;stroke-width:0;stroke-miterlimit:4;stroke-dasharray:none;stroke-opacity:1"
       d="m 53.951632,91.191509 c -0.71846,-0.48364 -0.8039,-0.80749 -0.88638,-3.36002 l -0.0747,-2.31064 -1.14968,-0.0821 c -2.57872,-0.18424 -4.34237,-1.13756 -5.606411,-3.03047 -0.71423,-1.06957 -1.11814,-2.33782 -1.2124,-3.80682 l -0.0772,-1.20271 -2.40542,-0.0668 c -2.53838,-0.0705 -2.76938,-0.12375 -3.26369,-0.75217 -0.35028,-0.44531 -0.38248,-1.63499 -0.0591,-2.18247 0.45513,-0.770489 0.82235,-0.869208 3.42298,-0.920209 l 2.37202,-0.04652 v -2.043454 -2.043459 l -2.37202,-0.05444 c -2.62352,-0.06022 -3.06085,-0.175493 -3.43884,-0.906428 -0.2865,-0.55404 -0.25816,-1.582232 0.0579,-2.100593 0.4334,-0.71079 0.66367,-0.769972 3.28071,-0.84323 l 2.40542,-0.06733 V 63.300308 61.22897 l -2.4296,-0.06682 c -2.19514,-0.06037 -2.46596,-0.09377 -2.80633,-0.346104 -1.05494,-0.782085 -0.9825,-2.625188 0.12667,-3.22317 0.35236,-0.189971 0.86953,-0.242075 2.80406,-0.282514 l 2.37202,-0.04958 V 55.219257 53.17773 l -2.3052,-0.05908 c -2.5705,-0.06589 -3.06541,-0.196911 -3.49579,-0.925497 -0.30802,-0.521438 -0.32154,-1.602393 -0.0257,-2.053929 0.47675,-0.727622 0.74966,-0.798589 3.34786,-0.870563 l 2.41199,-0.06682 0.0368,-2.094087 0.0367,-2.09409 -2.44852,-0.04407 c -2.06236,-0.03712 -2.50504,-0.08115 -2.80689,-0.279188 -1.09237,-0.716685 -1.04925,-2.657618 0.0726,-3.27039 0.35645,-0.194688 0.84713,-0.243747 2.80407,-0.280353 l 2.37202,-0.04437 v -0.963361 c 0,-2.408089 1.23752,-4.678894 3.264411,-5.990046 0.99576,-0.644141 2.14106,-1.001437 3.58582,-1.118666 l 1.12697,-0.09144 0.0843,-2.330945 c 0.0524,-1.449274 0.14861,-2.461978 0.2543,-2.677367 0.25091,-0.511318 0.79716,-0.858859 1.46893,-0.934577 0.67092,-0.07562 1.18087,0.13204 1.70785,0.695468 0.3277,0.350374 0.33488,0.404235 0.37576,2.819028 l 0.0417,2.461831 h 2.12989 2.12989 l 2.7e-4,-2.238383 c 1.3e-4,-1.866948 0.039,-2.314419 0.23386,-2.696605 0.65812,-1.290659 2.42952,-1.416323 3.29775,-0.233945 0.25102,0.341845 0.28088,0.599838 0.321,2.772922 l 0.0442,2.396011 h 2.12734 2.12734 v -2.307294 c 0,-1.979374 0.0347,-2.371996 0.24419,-2.762597 0.66128,-1.233041 2.63162,-1.231173 3.26351,0.0031 0.19575,0.382355 0.23369,0.83033 0.23386,2.76159 l 2.1e-4,2.305201 h 2.12734 2.12733 l 0.0442,-2.396011 c 0.0401,-2.173084 0.07,-2.431078 0.321,-2.772922 0.86823,-1.182378 2.63963,-1.056714 3.29775,0.233945 0.19489,0.382186 0.23369,0.829657 0.23386,2.696605 l 2.1e-4,2.238383 h 2.13816 2.13816 v -2.285006 c 0,-2.664535 0.10465,-3.037454 0.97737,-3.482684 0.62001,-0.316305 1.47789,-0.285444 2.0247,0.07284 0.64583,0.423166 0.75797,0.872984 0.83843,3.363291 l 0.0747,2.312488 1.01575,0.08643 c 2.25845,0.192175 3.46129,0.708509 4.82405,2.070798 1.39061,1.390124 1.95545,2.672074 2.11839,4.807851 l 0.0869,1.138897 2.33861,0.06855 c 2.584208,0.07575 3.026428,0.196429 3.405428,0.929338 0.2865,0.55404 0.25816,1.582232 -0.0579,2.100593 -0.43548,0.714203 -0.65553,0.768673 -3.317438,0.82118 l -2.44216,0.04817 0.0367,2.091944 0.0367,2.091946 2.41199,0.06682 c 2.598208,0.07198 2.871108,0.142941 3.347868,0.870564 0.29586,0.451535 0.28234,1.53249 -0.0257,2.053929 -0.43039,0.728585 -0.92529,0.85961 -3.495798,0.925496 l -2.3052,0.05908 v 2.043684 2.043684 l 2.37202,0.04842 c 1.674578,0.03419 2.481038,0.103053 2.742798,0.23422 0.55362,0.277421 0.89908,0.929407 0.89678,1.692479 -0.002,0.768548 -0.19242,1.190924 -0.70884,1.574961 -0.34085,0.253468 -0.60814,0.286515 -2.806328,0.346969 l -2.42961,0.06682 v 2.071339 2.071338 l 2.42939,0.06682 c 2.194818,0.06036 2.465778,0.09378 2.806328,0.346104 1.05517,0.781804 0.9826,2.629858 -0.12645,3.22023 -0.34833,0.185426 -0.89167,0.240538 -2.804068,0.284433 l -2.37202,0.05444 v 2.041536 2.041535 l 2.37202,0.05146 c 2.599268,0.05639 2.972578,0.156628 3.422978,0.919104 0.44795,0.75831 0.15757,2.3281 -0.50043,2.70541 -0.18082,0.10368 -1.17731,0.18658 -2.755508,0.22924 l -2.47224,0.0668 -0.0931,1.26953 c -0.15512,2.11441 -0.77306,3.46379 -2.21433,4.83543 -1.36316,1.2973 -2.44235,1.74609 -4.62458,1.92315 l -1.11513,0.0905 -0.0691,2.30245 c -0.0766,2.55032 -0.16445,2.88307 -0.8904,3.37176 -0.88321,0.594544 -2.26814,0.27383 -2.71954,-0.62978 -0.19531,-0.39097 -0.23369,-0.84599 -0.23386,-2.77292 l -2.1e-4,-2.3052 h -2.13815 -2.13816 l -0.003,2.23838 c -0.003,2.61223 -0.15419,3.16473 -0.96916,3.55146 -1.03801,0.492574 -2.23498,0.1455 -2.65006,-0.7684 -0.20881,-0.45975 -0.24784,-0.89421 -0.25031,-2.78645 l -0.003,-2.24178 -2.10475,0.0368 -2.10474,0.0368 -0.0668,2.40543 c -0.0453,1.63068 -0.12337,2.50457 -0.24239,2.71325 -0.59473,1.042744 -2.52389,1.089564 -3.18831,0.0774 -0.2063,-0.3143 -0.25463,-0.74677 -0.31106,-2.78408 l -0.0668,-2.41199 -2.10475,-0.0368 -2.10476,-0.0368 -0.003,2.24177 c -0.003,2.61594 -0.15393,3.168 -0.96916,3.55485 -1.03801,0.492574 -2.23498,0.1455 -2.65006,-0.76839 -0.20876,-0.45965 -0.24784,-0.89413 -0.25032,-2.78306 l -0.003,-2.23839 h -2.13815 -2.13816 v 2.27609 c 0,2.57245 -0.1089,3.02886 -0.82717,3.46678 -0.61471,0.374784 -1.54037,0.359564 -2.12644,-0.035 z m 37.76548,-9.93856 c 0.66303,-0.35778 1.15528,-0.87863 1.52209,-1.61053 l 0.28197,-0.56263 V 59.22438 c 0,-19.42964 -0.006,-19.866375 -0.26088,-20.366781 -0.35972,-0.705117 -0.89473,-1.315254 -1.39206,-1.58753 -0.38915,-0.213053 -1.82389,-0.231259 -20.53043,-0.260533 l -20.11204,-0.03147 -0.66318,0.365559 c -0.78251,0.431343 -1.39414,1.241648 -1.55132,2.055221 -0.0619,0.320172 -0.11509,9.369623 -0.11829,20.109894 -0.006,21.485829 -0.0657,19.961759 0.81554,20.965419 0.59389,0.6764 1.11058,0.91573 2.18542,1.01229 0.5145,0.0462 9.56491,0.0775 20.11205,0.0695 l 19.17659,-0.0145 z"
       id="path5761"
       inkscape:connector-curvature="0" />
  </g>
</svg>
